<svg width="32" height="32" viewBox="0 0 32 32" fill="none" xmlns="http://www.w3.org/2000/svg">
<path d="M29.1562 5.23116L17.1562 0.231156C16.7907 0.0795182 16.3989 0.00146484 16.0031 0.00146484C15.6074 0.00146484 15.2155 0.0795182 14.85 0.231156L2.85 5.23116C1.73125 5.69366 1 6.78741 1 7.99991C1 20.4062 8.15625 28.9812 14.8438 31.7687C15.5813 32.0749 16.4125 32.0749 17.15 31.7687C22.5062 29.5374 31 21.8312 31 7.99991C31 6.78741 30.2687 5.69366 29.1562 5.23116ZM16.3875 29.9249C16.1375 30.0249 15.8625 30.0249 15.6187 29.9249C9.5 27.4999 3 18.9999 3 7.99991C3 7.59366 3.24375 7.23116 3.6125 7.07491L15.6125 2.07491C15.8562 1.97491 16.1375 1.97491 16.3813 2.07491L28.3813 7.07491C28.7563 7.23116 29 7.59366 28.9937 7.99991C29 18.9999 22.5 27.4999 16.3875 29.9249ZM24.9 9.61241C24.6062 9.31866 24.1313 9.31866 23.8375 9.60616L13.625 19.7374L9.3125 15.3937C9.01875 15.0999 8.54375 15.0999 8.25 15.3874L7.71875 15.9187C7.425 16.2124 7.425 16.6874 7.7125 16.9812L13.0813 22.3937C13.375 22.6874 13.85 22.6874 14.1438 22.3999L25.425 11.2124C25.7188 10.9187 25.7188 10.4437 25.4312 10.1499L24.9 9.61241Z" fill="#37005F"/>
</svg>
