<svg width="32" height="32" viewBox="0 0 32 32" fill="none" xmlns="http://www.w3.org/2000/svg">
<path d="M16 2C22.625 2 28 3.79688 28 6V8C28 10.2031 22.625 12 16 12C9.375 12 4 10.2031 4 8V6C4 3.79688 9.375 2 16 2ZM28 11.3438V14C28 16.2031 22.625 18 16 18C9.375 18 4 16.2031 4 14V11.3438C6.57812 13.1562 11.2969 14 16 14C20.7031 14 25.4218 13.1562 28 11.3438ZM28 17.3438V20C28 22.2031 22.625 24 16 24C9.375 24 4 22.2031 4 20V17.3438C6.57812 19.1562 11.2969 20 16 20C20.7031 20 25.4218 19.1562 28 17.3438ZM28 23.3438V26C28 28.2031 22.625 30 16 30C9.375 30 4 28.2031 4 26V23.3438C6.57812 25.1562 11.2969 26 16 26C20.7031 26 25.4218 25.1562 28 23.3438ZM16 0C11.1161 0 2 1.17506 2 6V26C2 30.8336 11.131 32 16 32C20.8839 32 30 30.8249 30 26V6C30 1.16638 20.869 0 16 0Z" fill="#37005F"/>
</svg>
