<svg width="16" height="12" viewBox="0 0 16 12" fill="none" xmlns="http://www.w3.org/2000/svg">
<path d="M8 3.1999C6.6745 3.1999 5.6 4.4534 5.6 5.9999C5.6 7.54615 6.6745 8.7999 8 8.7999C9.325 8.7999 10.4 7.54665 10.4 5.9999C10.4 4.4534 9.3255 3.1999 8 3.1999ZM8 7.9999C7.11775 7.9999 6.4 7.10265 6.4 5.9999C6.4 4.89715 7.11775 3.9999 8 3.9999C8.88225 3.9999 9.6 4.89715 9.6 5.9999C9.6 7.10265 8.88225 7.9999 8 7.9999ZM15.529 0.961402C14.5592 0.554652 13.5887 0.399902 12.6188 0.399902C9.5395 0.399652 6.4605 1.9584 3.38125 1.9584C1.7585 1.9584 1.1725 1.5749 0.80625 1.5749C0.376 1.5749 0 1.9079 0 2.37015V10.3017C0 10.6174 0.18075 10.9167 0.471 11.0382C1.44075 11.4452 2.41125 11.5999 3.38125 11.5999C6.4605 11.5999 9.5395 10.0412 12.6188 10.0412C14.2415 10.0412 14.8273 10.4249 15.1938 10.4249C15.624 10.4249 16 10.0919 16 9.62965V1.69815C16 1.38215 15.8192 1.08315 15.529 0.961402ZM14.9617 9.5614C14.5382 9.44165 13.8298 9.2414 12.6188 9.2414C10.9795 9.2414 9.365 9.6499 7.80375 10.0452C6.27 10.4334 4.82125 10.8002 3.38125 10.8002C2.43225 10.8002 1.5815 10.6369 0.8 10.3019L0.78775 2.3744C0.8265 2.3789 0.944 2.41215 1.03825 2.43865C1.4615 2.5584 2.17025 2.75865 3.381 2.75865C5.02025 2.75865 6.6345 2.3499 8.19575 1.9549C9.73 1.5664 11.1788 1.1999 12.6188 1.1999C13.568 1.1999 14.4187 1.3634 15.2 1.69815L15.2122 9.62565C15.1735 9.62115 15.056 9.5879 14.9617 9.5614Z" fill="black"/>
</svg>
