<svg width="84" height="28" viewBox="0 0 84 28" fill="none" xmlns="http://www.w3.org/2000/svg">
<path d="M0 8.9716V5.54546H14.7528V8.9716H9.46023V23H5.30114V8.9716H0Z" fill="black"/>
<path d="M16.8132 23V5.54546H24.0234C25.3303 5.54546 26.4581 5.78126 27.407 6.25285C28.3615 6.71876 29.0973 7.38921 29.6143 8.26421C30.1314 9.13353 30.3899 10.1648 30.3899 11.358C30.3899 12.5682 30.1257 13.5966 29.5973 14.4432C29.0689 15.2841 28.3189 15.9261 27.3473 16.3693C26.3757 16.8068 25.2251 17.0256 23.8956 17.0256H19.3359V13.7017H23.1115C23.7479 13.7017 24.2791 13.6193 24.7053 13.4546C25.1371 13.2841 25.4638 13.0284 25.6854 12.6875C25.907 12.3409 26.0178 11.8977 26.0178 11.358C26.0178 10.8182 25.907 10.3722 25.6854 10.0199C25.4638 9.66194 25.1371 9.39489 24.7053 9.21876C24.2734 9.03694 23.7422 8.94603 23.1115 8.94603H21.032V23H16.8132ZM26.6399 15.0227L30.9865 23H26.3842L22.1229 15.0227H26.6399Z" fill="black"/>
<path d="M36.4794 23H31.9453L37.8345 5.54546H43.451L49.3402 23H44.8061L40.7067 9.94319H40.5703L36.4794 23ZM35.8743 16.1307H45.3516V19.3352H35.8743V16.1307Z" fill="black"/>
<path d="M66.2429 11.8693H61.9815C61.9247 11.4318 61.8082 11.0369 61.6321 10.6847C61.456 10.3324 61.223 10.0313 60.9332 9.78126C60.6435 9.53126 60.2997 9.34092 59.902 9.21023C59.5099 9.07387 59.0753 9.00569 58.598 9.00569C57.7514 9.00569 57.0213 9.21307 56.4077 9.62785C55.7997 10.0426 55.331 10.6421 55.0014 11.4261C54.6776 12.2102 54.5156 13.1591 54.5156 14.2727C54.5156 15.4318 54.6804 16.4034 55.0099 17.1875C55.3452 17.9659 55.8139 18.554 56.4162 18.9517C57.0242 19.3438 57.7429 19.5398 58.5724 19.5398C59.0384 19.5398 59.4617 19.4801 59.8423 19.3608C60.2287 19.2415 60.5668 19.0682 60.8565 18.8409C61.152 18.608 61.3935 18.3267 61.581 17.9972C61.7741 17.6619 61.9077 17.2841 61.9815 16.8636L66.2429 16.8892C66.169 17.6619 65.9446 18.4233 65.5696 19.1733C65.2003 19.9233 64.6918 20.608 64.044 21.2273C63.3963 21.8409 62.6065 22.3296 61.6747 22.6932C60.7486 23.0568 59.6861 23.2386 58.4872 23.2386C56.9077 23.2386 55.4929 22.8921 54.2429 22.1989C52.9986 21.5 52.0156 20.483 51.294 19.1477C50.5724 17.8125 50.2116 16.1875 50.2116 14.2727C50.2116 12.3523 50.5781 10.7244 51.3111 9.38921C52.044 8.05398 53.0355 7.03978 54.2855 6.3466C55.5355 5.65341 56.9361 5.30682 58.4872 5.30682C59.544 5.30682 60.5213 5.45455 61.419 5.75001C62.3168 6.03978 63.1065 6.46591 63.7884 7.02841C64.4702 7.58523 65.0242 8.26989 65.4503 9.08239C65.8764 9.89489 66.1406 10.8239 66.2429 11.8693Z" fill="black"/>
<path fill-rule="evenodd" clip-rule="evenodd" d="M68.657 28V0H72.8757V3H79.7536V0H83.9638V28H79.7536V25H72.8757V28H68.657ZM72.8757 22H79.7536V15.9858H72.8757V22ZM72.8757 12.5511V6H79.7536V12.5511H72.8757Z" fill="#0132FB"/>
</svg>
