<svg width="32" height="32" viewBox="0 0 32 32" fill="none" xmlns="http://www.w3.org/2000/svg">
<path d="M31.7812 30.1L23.7188 22.0375C23.575 21.8938 23.3875 21.8188 23.1875 21.8188H22.5438C24.6875 19.5 26 16.4062 26 13C26 5.81875 20.1812 0 13 0C5.81875 0 0 5.81875 0 13C0 20.1812 5.81875 26 13 26C16.4062 26 19.5 24.6875 21.8188 22.55V23.1875C21.8188 23.3875 21.9 23.575 22.0375 23.7188L30.1 31.7812C30.3938 32.075 30.8687 32.075 31.1625 31.7812L31.7812 31.1625C32.075 30.8687 32.075 30.3938 31.7812 30.1ZM13 24C6.91875 24 2 19.0812 2 13C2 6.91875 6.91875 2 13 2C19.0812 2 24 6.91875 24 13C24 19.0812 19.0812 24 13 24Z" fill="#37005F"/>
</svg>
