<svg width="16" height="13" viewBox="0 0 16 13" fill="none" xmlns="http://www.w3.org/2000/svg">
<path d="M14.5 0.5H1.5C0.671875 0.5 0 1.17188 0 2V11C0 11.8281 0.671875 12.5 1.5 12.5H14.5C15.3281 12.5 16 11.8281 16 11V2C16 1.17188 15.3281 0.5 14.5 0.5ZM1.5 1.5H14.5C14.775 1.5 15 1.725 15 2V3.29375C14.3156 3.87187 13.3375 4.66875 10.2937 7.08438C9.76562 7.50313 8.725 8.5125 8 8.5C7.275 8.5125 6.23125 7.50313 5.70625 7.08438C2.6625 4.66875 1.68438 3.87187 1 3.29375V2C1 1.725 1.225 1.5 1.5 1.5ZM14.5 11.5H1.5C1.225 11.5 1 11.275 1 11V4.59375C1.7125 5.17812 2.8375 6.08125 5.08437 7.86563C5.725 8.37813 6.85625 9.50625 8 9.5C9.1375 9.50937 10.2594 8.39063 10.9156 7.86563C13.1625 6.08125 14.2875 5.17812 15 4.59375V11C15 11.275 14.775 11.5 14.5 11.5Z" fill="white"/>
</svg>
