<svg width="32" height="32" viewBox="0 0 32 32" fill="none" xmlns="http://www.w3.org/2000/svg">
<g clip-path="url(#clip0_433_639)">
<path d="M28.8307 18H14V3.16937C14 2.6175 13.5513 2.15625 13.0163 2.15625C12.9732 2.15625 12.9288 2.15938 12.8844 2.16563C5.44254 3.21688 -0.247462 9.71438 0.00816279 17.5044C0.262538 25.2563 6.74441 31.7375 14.4957 31.9919C14.6638 31.9975 14.8325 32 15 32C22.565 32 28.8057 26.3962 29.8344 19.115C29.9175 18.5244 29.4269 18 28.8307 18ZM15 30C14.8544 30 14.7075 29.9975 14.5613 29.9925C7.85879 29.7725 2.22691 24.1406 2.00691 17.4381C1.80254 11.1888 6.02816 5.76438 12 4.36438V20H27.6344C26.2669 25.7769 21.0307 30 15 30ZM18.05 0.0025C18.0282 0.000625 18.0063 0 17.985 0C17.4438 0 17 0.465 17 1.01437V15H30.9857C31.5569 15 32.0369 14.5194 31.9982 13.95C31.4825 6.48375 25.5163 0.5175 18.05 0.0025ZM19 13V2.11875C24.5782 2.98188 29.0175 7.42188 29.8813 13H19Z" fill="#37005F"/>
</g>
<defs>
<clipPath id="clip0_433_639">
<rect width="32" height="32" fill="white"/>
</clipPath>
</defs>
</svg>
