<svg width="19" height="19" viewBox="0 0 19 19" fill="none" xmlns="http://www.w3.org/2000/svg">
<g clip-path="url(#clip0_439_6403)">
<path d="M18.3044 2.08685L16.9131 0.69562C15.9857 -0.231855 14.4819 -0.231892 13.5544 0.69562L0.476389 13.7736L0.00558276 18.0109C-0.057429 18.5781 0.42195 19.0574 0.98913 18.9944L5.22643 18.5236L18.3044 5.44562C19.2318 4.51811 19.2318 3.01432 18.3044 2.08685ZM6.11137 12.8885C6.34327 13.1204 6.71919 13.1204 6.95105 12.8885L13.6562 6.18339L14.7717 7.29886L6.45701 15.6136V14.3242H4.67576V12.5429H3.3864L11.7011 4.22825L12.8166 5.34372L6.11137 12.0489C5.87948 12.2808 5.87948 12.6567 6.11137 12.8885ZM4.68122 17.3893L2.49195 17.6326L1.36735 16.508L1.6106 14.3187L2.34733 13.582H3.6367V15.3632H5.41795V16.6526L4.68122 17.3893ZM17.4647 4.60591L15.6114 6.45919L12.5408 3.38857L14.394 1.53529C14.8581 1.07124 15.6093 1.07117 16.0734 1.53529L17.4647 2.92652C17.9287 3.39061 17.9288 4.14174 17.4647 4.60591Z" fill="#290F6A"/>
</g>
<defs>
<clipPath id="clip0_439_6403">
<rect width="19" height="19" fill="white"/>
</clipPath>
</defs>
</svg>
