<svg width="19" height="19" viewBox="0 0 19 19" fill="none" xmlns="http://www.w3.org/2000/svg">
<path d="M16.3281 8.60938H10.3906V2.67188C10.3906 2.50785 10.2578 2.375 10.0938 2.375H8.90625C8.74223 2.375 8.60938 2.50785 8.60938 2.67188V8.60938H2.67188C2.50785 8.60938 2.375 8.74223 2.375 8.90625V10.0938C2.375 10.2578 2.50785 10.3906 2.67188 10.3906H8.60938V16.3281C8.60938 16.4921 8.74223 16.625 8.90625 16.625H10.0938C10.2578 16.625 10.3906 16.4921 10.3906 16.3281V10.3906H16.3281C16.4921 10.3906 16.625 10.2578 16.625 10.0938V8.90625C16.625 8.74223 16.4921 8.60938 16.3281 8.60938Z" fill="#290F6A"/>
</svg>
