<svg width="32" height="32" viewBox="0 0 32 32" fill="none" xmlns="http://www.w3.org/2000/svg">
<path d="M16 2C19.8625 2 23 5.1375 23 9C23 12.8625 19.8625 16 16 16C12.1375 16 9 12.8625 9 9C9 5.1375 12.1375 2 16 2ZM24 22C27.3062 22 30 24.6938 30 28V30H2V28C2 24.6938 4.69375 22 8 22C13.3125 22 12.2063 23 16 23C19.8062 23 18.6812 22 24 22ZM16 0C11.0312 0 7 4.03125 7 9C7 13.9688 11.0312 18 16 18C20.9688 18 25 13.9688 25 9C25 4.03125 20.9688 0 16 0ZM24 20C18.225 20 19.5625 21 16 21C12.45 21 13.7688 20 8 20C3.58125 20 0 23.5812 0 28V30C0 31.1063 0.89375 32 2 32H30C31.1063 32 32 31.1063 32 30V28C32 23.5812 28.4188 20 24 20Z" fill="#37005F"/>
</svg>
