<svg width="32" height="26" viewBox="0 0 32 26" fill="none" xmlns="http://www.w3.org/2000/svg">
<path d="M31.6 11.4002H27.2V7.0002C27.2 6.7802 27.02 6.6002 26.8 6.6002H26C25.78 6.6002 25.6 6.7802 25.6 7.0002V11.4002H21.2C20.98 11.4002 20.8 11.5802 20.8 11.8002V12.6002C20.8 12.8202 20.98 13.0002 21.2 13.0002H25.6V17.4002C25.6 17.6202 25.78 17.8002 26 17.8002H26.8C27.02 17.8002 27.2 17.6202 27.2 17.4002V13.0002H31.6C31.82 13.0002 32 12.8202 32 12.6002V11.8002C32 11.5802 31.82 11.4002 31.6 11.4002ZM15.68 14.6002C14.245 14.6002 13.555 15.4002 11.2 15.4002C8.845 15.4002 8.16 14.6002 6.72 14.6002C3.01 14.6002 0 17.6102 0 21.3202V23.4002C0 24.7252 1.075 25.8002 2.4 25.8002H20C21.325 25.8002 22.4 24.7252 22.4 23.4002V21.3202C22.4 17.6102 19.39 14.6002 15.68 14.6002ZM20.8 23.4002C20.8 23.8402 20.44 24.2002 20 24.2002H2.4C1.96 24.2002 1.6 23.8402 1.6 23.4002V21.3202C1.6 18.4952 3.895 16.2002 6.72 16.2002C7.7 16.2002 8.675 17.0002 11.2 17.0002C13.72 17.0002 14.7 16.2002 15.68 16.2002C18.505 16.2002 20.8 18.4952 20.8 21.3202V23.4002ZM11.2 13.0002C14.735 13.0002 17.6 10.1352 17.6 6.6002C17.6 3.0652 14.735 0.200195 11.2 0.200195C7.665 0.200195 4.8 3.0652 4.8 6.6002C4.8 10.1352 7.665 13.0002 11.2 13.0002ZM11.2 1.8002C13.845 1.8002 16 3.9552 16 6.6002C16 9.2452 13.845 11.4002 11.2 11.4002C8.555 11.4002 6.4 9.2452 6.4 6.6002C6.4 3.9552 8.555 1.8002 11.2 1.8002Z" fill="#37005F"/>
</svg>
