<svg width="17" height="10" viewBox="0 0 17 10" fill="none" xmlns="http://www.w3.org/2000/svg">
<path d="M11.7296 0.380449L11.4672 0.642812C11.2933 0.816707 11.2933 1.09866 11.4672 1.2726L14.5817 4.36915H0.632812C0.386889 4.36915 0.1875 4.56854 0.1875 4.81446V5.18556C0.1875 5.43148 0.386889 5.63087 0.632812 5.63087H14.5817L11.4672 8.72742C11.2933 8.90132 11.2933 9.18328 11.4672 9.35721L11.7296 9.61957C11.9035 9.79346 12.1855 9.79346 12.3594 9.61957L16.6821 5.31488C16.856 5.14099 16.856 4.85903 16.6821 4.6851L12.3594 0.380449C12.1855 0.206517 11.9035 0.206517 11.7296 0.380449Z" fill="#9300FF"/>
</svg>
