<svg width="86" height="25" viewBox="0 0 86 25" fill="none" xmlns="http://www.w3.org/2000/svg">
<g clip-path="url(#clip0_439_6231)">
<path d="M30.7016 9.81147C30.7016 7.33264 32.5451 5.60174 35.8952 5.60174C37.9394 5.60174 39.6121 6.24161 40.5183 6.86843C40.648 6.95792 40.8794 7.17506 40.7406 7.57889C40.5628 8.01383 40.2368 8.66791 40.0028 9.09281C39.8667 9.3404 39.5189 9.30778 39.3408 9.21928C38.6953 8.8986 37.6365 8.35609 36.6639 8.25606C36.4177 8.22977 36.1699 8.21926 35.9222 8.22461C35.0656 8.24334 34.35 8.53492 34.098 9.17562C34.0486 9.29685 34.0211 9.42556 34.0166 9.55603C33.9931 10.4003 35.1916 10.7056 36.6435 10.9502C39.3427 11.4035 41.3848 12.1794 41.3848 14.9031C41.3848 17.2162 39.5097 19.3066 35.8359 19.2425C33.4139 19.1945 31.6957 18.3922 30.775 17.6136C30.7436 17.5872 30.3931 17.2372 30.581 16.8164C30.7959 16.2745 31.1589 15.6536 31.4437 15.3238C31.602 15.1121 32.0199 15.0784 32.2371 15.2104C32.9961 15.6728 34.2451 16.4142 35.6849 16.4634C35.7985 16.4672 35.9111 16.4679 36.0217 16.4651C37.3168 16.4343 38.1003 15.9528 38.0839 15.1418C38.0699 14.4274 37.0431 14.01 35.4079 13.7079C32.8 13.2263 30.7019 12.3835 30.7019 9.81147M54.3942 13.341C52.5551 13.3646 50.8689 13.8574 50.8203 15.2665C50.8198 16.3846 51.745 16.9338 53.0435 16.8619C54.2891 16.7443 55.239 16.2146 55.6575 15.5119C55.8123 15.2514 55.8358 14.2768 55.8264 13.8603C55.8241 13.7716 55.6452 13.6038 55.5669 13.5715C55.1762 13.4101 54.8869 13.3603 54.394 13.3407M48.2748 7.66337C49.1348 6.90891 50.8399 5.73457 53.5574 5.79646C57.1435 5.86957 59.0381 7.51783 59.2145 11.4607C59.2872 13.0867 59.1667 17.6222 59.138 18.7522C59.1338 18.9143 59.0778 19.0264 58.855 19.0305C58.2644 19.0538 56.9 19.0446 56.2732 19.0366C55.9568 19.0215 55.9201 18.8676 55.916 18.7065C55.9133 18.6011 55.9041 18.2886 55.8974 18.0339C55.8938 17.8987 55.7643 17.9025 55.7312 17.9372C54.89 18.8178 53.5124 19.243 52.0473 19.243C49.8206 19.243 47.6007 17.9587 47.6075 15.4155C47.6143 12.8109 49.4981 11.5261 51.5675 11.2232C52.8926 11.0298 54.3863 11.2018 55.5174 11.6424C55.5898 11.6708 55.7375 11.6297 55.7387 11.5292C55.7433 11.1973 55.727 10.5648 55.662 10.265C55.4959 9.50116 54.846 8.88655 53.4806 8.72094C53.1994 8.68698 52.9163 8.67577 52.6329 8.69785C51.5475 8.7815 50.2414 9.61123 49.7005 9.92188C49.5732 9.99482 49.3739 9.94145 49.3094 9.85998C48.9937 9.46017 48.2003 8.29085 48.1378 8.10399C48.0754 7.91764 48.1634 7.76072 48.2745 7.6627L48.2748 7.66337ZM60.397 12.512C60.3756 8.87936 62.9573 5.81487 67.1493 5.78793C69.7651 5.7712 71.6654 6.93384 72.0005 7.4822C72.0686 7.611 72.0336 7.71857 71.9865 7.84821C71.765 8.30657 71.2057 9.19218 70.8071 9.69404C70.6374 9.90783 70.4531 9.72465 70.2389 9.58497C69.6446 9.19687 68.5154 8.72228 67.4041 8.72228C65.3879 8.72261 63.8865 10.078 63.9032 12.5715C63.9189 14.9643 65.357 16.2794 67.4111 16.3271C68.4848 16.3535 69.5252 15.7484 70.0849 15.2527C70.2606 15.1024 70.4425 15.1776 70.6433 15.3315C71.0375 15.7265 71.6028 16.3363 71.9162 16.756C72.1215 16.9892 71.9679 17.2173 71.894 17.309C71.0436 18.3641 69.4011 19.252 67.2275 19.2641C62.6761 19.2954 60.4183 16.1579 60.3973 12.5125M82.1228 19.1003C82.3365 19.0846 84.6163 18.7761 85.316 18.619C85.4897 18.5802 85.5515 18.437 85.4544 18.2952C85.0637 17.7207 84.0363 16.0893 82.9603 14.6289C81.9706 13.2861 80.9276 12.1051 80.5902 11.6508C80.508 11.5404 80.5124 11.4316 80.602 11.346C81.2438 10.7304 83.9281 8.15 84.9374 7.08439C85.3281 6.66986 85.0935 6.49153 84.7617 6.39468C84.1206 6.20732 83.0837 5.97379 82.494 5.85184C82.2454 5.80031 81.9459 5.81838 81.7285 6.03752C80.7194 6.9601 77.6397 9.99047 76.7203 10.8963C76.5548 11.0598 76.4584 11.0234 76.4576 10.7899C76.4501 9.04346 76.4149 1.56616 76.3513 0.336284C76.3468 0.173683 76.1474 0.0502264 76.0349 0.0443714C75.4568 0.014762 73.9964 0.00623034 73.4209 0.0393528C73.2596 0.0572523 73.1055 0.218348 73.0915 0.354518C72.9588 2.32112 73.1478 16.7575 73.2267 18.7769C73.2323 18.923 73.3432 19.0362 73.4847 19.0444C74.0588 19.077 75.479 19.0749 76.1421 19.0627C76.4683 19.0627 76.5082 18.8378 76.5082 18.8378L76.5574 14.964C76.5574 14.964 76.591 14.7917 76.6454 14.7348C76.8792 14.4881 77.5259 13.8086 77.8016 13.5459C77.8678 13.4829 77.9723 13.4874 78.0398 13.5766C78.3674 14.0098 79.3016 15.4184 80.1676 16.6763C80.9632 17.8319 81.706 18.8576 81.7579 18.93C81.8776 19.0973 82.0176 19.104 82.123 19.1008V19.1003H82.1228ZM43.3499 19.0869C43.5504 19.0934 45.0716 19.0918 45.7456 19.0909C45.9725 19.0953 46.0904 18.9268 46.0979 18.7781C46.2411 15.9466 46.1798 2.46582 46.0894 0.33712C46.0819 0.153107 46.0015 0.0840181 45.8734 0.0672896C45.2949 -0.00865773 43.6511 0.00907432 43.1242 0.144241C43.0211 0.170504 42.9604 0.247288 42.9571 0.345986C42.8281 5.83293 42.9152 18.483 42.9425 18.7226C42.9696 18.9625 43.0976 19.0786 43.3503 19.0869H43.3499Z" fill="#443642"/>
<path d="M2.63851 13.4567C1.70106 13.4637 0.906949 12.916 0.614147 12.0612C0.603284 12.0289 0.593158 11.9964 0.583774 11.9637C0.264695 10.869 0.883402 9.72374 1.99233 9.35705L19.7789 3.51496C19.9901 3.45506 20.2086 3.42376 20.4285 3.42195C21.3908 3.41459 22.2068 3.97432 22.5067 4.84721L22.5334 4.93153C22.8661 6.07174 22.0394 7.0895 21.0489 7.41571C21.0482 7.41621 20.868 7.47593 3.36096 13.3361C3.12826 13.4139 2.88435 13.4546 2.63851 13.4567Z" fill="#70CADB"/>
<path d="M5.60308 22.0326C4.6583 22.0393 3.86146 21.4993 3.57207 20.6567C3.56108 20.6247 3.55084 20.5924 3.54135 20.5599C3.21784 19.4521 3.83586 18.2948 4.94855 17.9276L22.7358 12.032C22.9656 11.9567 23.203 11.9183 23.4417 11.9161C24.389 11.9091 25.2213 12.4765 25.515 13.3286L25.5423 13.4173C25.7141 14.0063 25.6126 14.6683 25.271 15.1907C25.0164 15.5791 24.2134 15.921 24.2134 15.921L6.35864 21.9063C6.11512 21.9872 5.86015 22.0299 5.60308 22.033V22.0326Z" fill="#E01765"/>
<path d="M20.41 22.0701C19.949 22.0744 19.4983 21.9356 19.1227 21.6735C18.7471 21.4113 18.4657 21.0394 18.3189 20.6109L12.3827 3.32365L12.353 3.22662C12.0314 2.12421 12.6499 0.974295 13.7585 0.607941C13.9803 0.534838 14.2096 0.496697 14.4405 0.494689C14.7835 0.49218 15.1153 0.56796 15.4279 0.719353C15.6854 0.844195 15.9152 1.01772 16.1041 1.22993C16.2929 1.44215 16.4371 1.68888 16.5283 1.95592L22.4641 19.2416L22.4813 19.2972C22.8147 20.4417 22.1975 21.5923 21.0889 21.9587C20.87 22.0304 20.6409 22.068 20.41 22.0701Z" fill="#E8A723"/>
<path d="M11.586 24.9816C11.1247 24.9859 10.6738 24.8469 10.298 24.5845C9.92221 24.3222 9.64078 23.95 9.49404 23.5212L3.55933 6.2346C3.46738 5.96791 3.42998 5.68606 3.44927 5.40518C3.46857 5.1243 3.54418 4.84992 3.67179 4.59772C3.79939 4.34553 3.97647 4.12049 4.1929 3.93549C4.40934 3.75048 4.66086 3.60914 4.93308 3.51957C5.15238 3.44769 5.38182 3.40999 5.61304 3.40782C6.07416 3.40336 6.52488 3.54214 6.90059 3.80428C7.2763 4.06642 7.5577 4.43845 7.70446 4.86705L13.6393 22.1543C13.7313 22.4211 13.7687 22.7031 13.7494 22.9841C13.73 23.2651 13.6543 23.5396 13.5265 23.7919C13.3988 24.0441 13.2215 24.2692 13.0049 24.4542C12.7882 24.6391 12.5365 24.7804 12.2641 24.8698C12.0452 24.9417 11.8161 24.9794 11.5853 24.9814L11.586 24.9816Z" fill="#3EB890"/>
<path d="M17.4834 18.1771L21.6225 16.7897L20.2694 12.8501L16.1255 14.223L17.4834 18.1771Z" fill="#CC2027"/>
<path d="M8.6731 21.1304L12.8119 19.7431L11.4486 15.7734L7.30566 17.1468L8.6731 21.1304Z" fill="#361238"/>
<path d="M14.5368 9.59607L18.6763 8.21045L17.3391 4.31689L13.1919 5.6791L14.5368 9.59607Z" fill="#65863A"/>
<path d="M5.72555 12.5452L9.86505 11.1595L8.51144 7.21631L4.36426 8.57834L5.72555 12.5452Z" fill="#1A937D"/>
</g>
<defs>
<clipPath id="clip0_439_6231">
<rect width="85" height="25" fill="white" transform="translate(0.5)"/>
</clipPath>
</defs>
</svg>
