<svg width="32" height="32" viewBox="0 0 32 32" fill="none" xmlns="http://www.w3.org/2000/svg">
<path d="M29.3389 11.3053L21.2222 10.122L17.5944 2.76645C16.9444 1.45534 15.0611 1.43867 14.4055 2.76645L10.7778 10.122L2.6611 11.3053C1.20555 11.5164 0.622215 13.3109 1.67777 14.3387L7.54999 20.0609L6.1611 28.1442C5.9111 29.6053 7.44999 30.6998 8.73888 30.0164L16 26.1998L23.2611 30.0164C24.55 30.6942 26.0889 29.6053 25.8389 28.1442L24.45 20.0609L30.3222 14.3387C31.3778 13.3109 30.7944 11.5164 29.3389 11.3053ZM22.5444 19.4387L24.0889 28.4387L16 24.1942L7.91666 28.4442L9.4611 19.4442L2.91666 13.0609L11.9555 11.7498L16 3.55534L20.0444 11.7498L29.0833 13.0609L22.5444 19.4387Z" fill="#37005F"/>
</svg>
