<svg width="19" height="19" viewBox="0 0 19 19" fill="none" xmlns="http://www.w3.org/2000/svg">
<g clip-path="url(#clip0_439_7382)">
<path d="M18.4306 10.6015C18.799 10.1238 19 9.5 19 8.73807C19 7.34001 17.8098 6.04501 16.3011 6.04501H13.6979C14.0215 5.40049 14.4659 4.60104 14.4659 3.45414C14.4659 1.28666 13.6013 0 11.3892 0C10.2761 0 9.86308 1.40711 9.65144 2.49479C9.52501 3.14461 9.40556 3.75844 9.03821 4.12578C8.16354 5.00049 6.82812 7.125 6.02589 7.5564C5.94466 7.59061 5.84087 7.61755 5.72783 7.63889C5.5136 7.32851 5.15564 7.125 4.75 7.125H1.1875C0.531666 7.125 0 7.65667 0 8.3125V17.8125C0 18.4683 0.531666 19 1.1875 19H4.75C5.40583 19 5.9375 18.4683 5.9375 17.8125V17.4882C7.14337 17.4882 9.67393 19.0003 12.5227 18.9995C12.727 18.9996 13.9199 19.0006 14.0447 18.9995C16.2446 19 17.4682 17.6677 17.397 15.6673C17.9583 15.0095 18.2334 14.0591 18.0733 13.1771C18.5355 12.4525 18.6346 11.4304 18.4306 10.6015ZM1.1875 17.8125V8.3125H4.75V17.8125H1.1875ZM16.9225 10.2552C17.5156 10.6875 17.5156 12.4688 16.7144 12.8776C17.2162 13.7222 16.7646 14.8524 16.1572 15.1782C16.465 17.1279 15.4536 17.7984 14.0341 17.812C13.9112 17.8131 12.6519 17.812 12.5228 17.812C9.81643 17.812 7.52259 16.3007 5.93754 16.3007V8.7439C7.33686 8.7439 8.62073 6.22272 9.87792 4.96549C11.0114 3.83199 10.6336 1.94279 11.3893 1.18713C13.2785 1.18713 13.2785 2.50514 13.2785 3.45418C13.2785 5.01979 12.145 5.72119 12.145 7.23254H16.3012C17.1447 7.23254 17.8088 7.98824 17.8125 8.7439C17.8162 9.49955 17.5156 10.0938 16.9225 10.2552ZM3.85938 16.0312C3.85938 16.5231 3.46063 16.9219 2.96875 16.9219C2.47687 16.9219 2.07812 16.5231 2.07812 16.0312C2.07812 15.5394 2.47687 15.1406 2.96875 15.1406C3.46063 15.1406 3.85938 15.5394 3.85938 16.0312Z" fill="#7D7D7D"/>
</g>
<defs>
<clipPath id="clip0_439_7382">
<rect width="19" height="19" fill="white"/>
</clipPath>
</defs>
</svg>
