<svg width="19" height="19" viewBox="0 0 19 19" fill="none" xmlns="http://www.w3.org/2000/svg">
<g clip-path="url(#clip0_439_7384)">
<path d="M18.4306 8.39848C18.6346 7.56961 18.5355 6.54747 18.0733 5.82291C18.2334 4.94089 17.9583 3.99056 17.397 3.33268C17.4683 1.3323 16.2446 9.42127e-07 14.0447 0.000520473C13.9199 -0.000592808 12.727 0.000409145 12.5227 0.000520473C9.67044 -0.000258823 7.27036 1.48438 5.9375 1.48438H5.53505C5.32575 1.29976 5.05107 1.1875 4.75 1.1875H1.1875C0.531666 1.1875 0 1.71917 0 2.375V11.875C0 12.5308 0.531666 13.0625 1.1875 13.0625H4.75C5.40583 13.0625 5.9375 12.5308 5.9375 11.875V11.4118C5.96904 11.4217 5.99884 11.4322 6.02589 11.4436C6.82812 11.875 8.16354 13.9995 9.03821 14.8742C9.40559 15.2416 9.52501 15.8554 9.65144 16.5052C9.86308 17.5929 10.2761 19 11.3892 19C13.6013 19 14.4659 17.7133 14.4659 15.5459C14.4659 14.399 14.0216 13.5995 13.698 12.955H16.3012C17.8098 12.955 19 11.66 19 10.2619C19 9.5 18.799 8.87623 18.4306 8.39848ZM4.75 11.875H1.1875V2.375H4.75V11.875ZM16.3011 11.7675H12.1449C12.1449 13.2788 13.2784 13.9802 13.2784 15.5458C13.2784 16.4949 13.2784 17.8129 11.3892 17.8129C10.6336 17.0572 11.0114 15.168 9.87788 14.0345C8.8163 12.9729 7.23303 10.2561 6.09948 10.2561H5.9375V2.69934H6.09948C7.38722 2.69934 9.87788 1.18798 12.5227 1.18798C12.6519 1.18798 13.9112 1.18687 14.0341 1.18798C15.4536 1.20164 16.4649 1.87206 16.1572 3.82178C16.7646 4.1476 17.2162 5.27777 16.7144 6.12242C17.5156 6.53125 17.5156 8.3125 16.9225 8.74475C17.5156 8.90625 17.8162 9.50045 17.8125 10.2561C17.8088 11.0118 17.1446 11.7675 16.3011 11.7675ZM3.85938 10.0938C3.85938 10.5856 3.46063 10.9844 2.96875 10.9844C2.47687 10.9844 2.07812 10.5856 2.07812 10.0938C2.07812 9.60187 2.47687 9.20313 2.96875 9.20313C3.46063 9.20313 3.85938 9.60187 3.85938 10.0938Z" fill="#7D7D7D"/>
</g>
<defs>
<clipPath id="clip0_439_7384">
<rect width="19" height="19" fill="white"/>
</clipPath>
</defs>
</svg>
